<?xml version="1.0" encoding="utf-8"?>
<!-- Generator: Adobe Illustrator 16.0.0, SVG Export Plug-In . SVG Version: 6.00 Build 0)  -->
<!DOCTYPE svg PUBLIC "-//W3C//DTD SVG 1.1//EN" "http://www.w3.org/Graphics/SVG/1.1/DTD/svg11.dtd">
<svg version="1.1" id="Слой_1" xmlns="http://www.w3.org/2000/svg" xmlns:xlink="http://www.w3.org/1999/xlink" x="0px" y="0px"
	 width="100px" height="100px" viewBox="0 0 100 100" enable-background="new 0 0 100 100" xml:space="preserve">
<g id="src" display="none">
	<path display="inline" stroke="#000000" stroke-width="4" stroke-linejoin="round" stroke-miterlimit="10" d="M66.111,28.519
		v15.556c0,8.148-6.667,14.814-14.814,14.814c-4.815,0-9.186-2.296-11.853-5.926c-1.852-2.444-2.963-5.556-2.963-8.889V29.259"/>
	<path display="inline" stroke="#000000" stroke-width="4" stroke-linejoin="round" stroke-miterlimit="10" d="M51.297,31.481
		V17.407c0-2.074,1.629-3.704,3.703-3.704l0,0c2.074,0,3.703,1.629,3.703,3.704v17.037"/>
	<path display="inline" stroke="#000000" stroke-width="4" stroke-linejoin="round" stroke-miterlimit="10" d="M43.889,34.074v-20
		c0-2.223,1.63-4.074,3.704-4.074l0,0c2.074,0,3.704,1.778,3.704,4.074v20.074"/>
	<path display="inline" stroke="#000000" stroke-width="4" stroke-linejoin="round" stroke-miterlimit="10" d="M36.481,31.481
		v-10.37c0-2.074,1.63-3.704,3.704-3.704l0,0c2.074,0,3.704,1.63,3.704,3.704v10.37"/>
	<path display="inline" stroke="#000000" stroke-width="4" stroke-linejoin="round" stroke-miterlimit="10" d="M58.703,28.519
		v-2.963c0-2.074,1.631-3.704,3.704-3.704l0,0c2.074,0,3.704,1.63,3.704,3.704v2.963"/>
	<path display="inline" stroke="#000000" stroke-width="4" stroke-linejoin="round" stroke-miterlimit="10" d="M41.741,55.407
		L28.407,41.852c-1.481-1.481-1.481-3.777,0-5.259l0,0c1.481-1.481,3.778-1.481,5.259,0l6.074,6.222"/>
</g>
<g id="src_copy" display="none">
	
		<line display="inline" fill="none" stroke="#000000" stroke-width="4" stroke-miterlimit="10" x1="36.481" y1="39.556" x2="36.481" y2="31.481"/>
	<path display="inline" fill="none" stroke="#000000" stroke-width="4" stroke-miterlimit="10" d="M41.593,55.26
		c-0.593-0.52-1.111-1.037-1.63-1.704"/>
	<path display="inline" fill="none" stroke="#000000" stroke-width="4" stroke-miterlimit="10" d="M41.593,55.26
		c2.592,2.296,6,3.629,9.704,3.629c8.147,0,14.814-6.666,14.814-14.814V28.519"/>
	
		<line display="inline" fill="none" stroke="#000000" stroke-width="4" stroke-miterlimit="10" x1="58.703" y1="28.519" x2="58.703" y2="34.444"/>
	<path display="inline" fill="none" stroke="#000000" stroke-width="4" stroke-miterlimit="10" d="M58.703,25.556v-8.148
		c0-2.074-1.629-3.704-3.703-3.704s-3.703,1.629-3.703,3.704"/>
	<path display="inline" fill="none" stroke="#000000" stroke-width="4" stroke-miterlimit="10" d="M51.297,17.407v-3.333
		c0-2.223-1.63-4.074-3.704-4.074c-2.074,0-3.704,1.778-3.704,4.074v7.037"/>
	
		<line display="inline" fill="none" stroke="#000000" stroke-width="4" stroke-miterlimit="10" x1="51.297" y1="31.481" x2="51.297" y2="34.074"/>
	
		<line display="inline" fill="none" stroke="#000000" stroke-width="4" stroke-miterlimit="10" x1="43.889" y1="34.074" x2="43.889" y2="31.481"/>
	
		<line display="inline" fill="none" stroke="#000000" stroke-width="4" stroke-miterlimit="10" x1="51.297" y1="17.407" x2="51.297" y2="31.481"/>
	<path display="inline" fill="none" stroke="#000000" stroke-width="4" stroke-miterlimit="10" d="M36.481,29.259v-8.148
		c0-2.074,1.63-3.704,3.704-3.704c2.074,0,3.704,1.63,3.704,3.704"/>
	
		<line display="inline" fill="none" stroke="#000000" stroke-width="4" stroke-miterlimit="10" x1="36.481" y1="29.259" x2="36.481" y2="31.481"/>
	
		<line display="inline" fill="none" stroke="#000000" stroke-width="4" stroke-miterlimit="10" x1="43.889" y1="31.481" x2="43.889" y2="21.111"/>
	<path display="inline" fill="none" stroke="#000000" stroke-width="4" stroke-miterlimit="10" d="M58.703,25.556
		c0-2.074,1.631-3.704,3.704-3.704c2.074,0,3.704,1.63,3.704,3.704v2.963"/>
	
		<line display="inline" fill="none" stroke="#000000" stroke-width="4" stroke-miterlimit="10" x1="58.703" y1="25.556" x2="58.703" y2="28.519"/>
	<path display="inline" fill="none" stroke="#000000" stroke-width="4" stroke-miterlimit="10" d="M36.481,39.556l-2.889-2.963
		c-1.481-1.481-3.778-1.481-5.259,0s-1.481,3.777,0,5.259l11.555,11.704"/>
	
		<line display="inline" fill="none" stroke="#000000" stroke-width="4" stroke-miterlimit="10" x1="39.667" y1="42.889" x2="36.481" y2="39.556"/>
	
		<line display="inline" fill="none" stroke="#000000" stroke-width="4" stroke-miterlimit="10" x1="41.593" y1="55.26" x2="39.963" y2="53.629"/>
	
		<line display="inline" fill="none" stroke="#000000" stroke-width="4" stroke-miterlimit="10" x1="41.593" y1="55.26" x2="41.741" y2="55.407"/>
</g>
<g id="src_copy_2">
	<g>
		<path d="M57.161,99.057c-7.286,0-14.29-2.663-19.894-7.425l-0.281-0.141c-1.12-0.982-2.101-2.101-3.082-3.083L12.052,66.134
			c-1.821-1.82-2.802-4.2-2.802-6.723s0.98-4.904,2.802-6.725c1.821-1.821,4.202-2.802,6.725-2.802c2.522,0,4.903,0.98,6.725,2.802
			l1.12,1.12V25.089c0-5.185,4.203-9.526,9.526-9.526c1.401,0,2.803,0.28,4.064,0.981l0.42,0.139v-5.042
			c0-5.604,4.202-10.087,9.526-10.087c4.481,0,8.264,3.222,9.246,7.845l0.14,0.42l0.279-0.14c1.401-0.7,2.803-1.121,4.343-1.121
			c5.183,0,9.527,4.204,9.527,9.526v7.005l0.422-0.14c1.258-0.56,2.657-0.98,4.059-0.98c5.186,0,9.527,4.202,9.527,9.525v35.024
			C87.699,85.326,73.972,99.057,57.161,99.057z M40.49,87.849c4.622,4.063,10.507,6.163,16.671,6.163
			c14.008,0,25.494-11.486,25.494-25.494V33.494c0-2.521-1.961-4.483-4.483-4.483c-2.52,0-4.48,1.962-4.48,4.483v16.531h-5.044
			V18.083c0-2.521-1.96-4.482-4.483-4.482c-2.522,0-4.483,1.961-4.483,4.482v31.24h-5.043V11.781c0-2.802-1.96-5.185-4.481-5.185
			c-2.522,0-4.484,2.243-4.484,5.185v37.683H40.63V25.089c0-2.522-1.962-4.483-4.484-4.483c-2.521,0-4.481,1.961-4.481,4.483V58.99
			l5.182,5.323l-3.643,3.503L21.857,56.188c-0.84-0.84-1.96-1.261-3.081-1.261c-1.261,0-2.382,0.421-3.222,1.261
			c-0.84,0.841-1.261,1.961-1.261,3.223c0,1.259,0.421,2.38,1.261,3.222l21.994,22.132l0,0L40.49,87.849z"/>
	</g>
</g>
</svg>
