<?xml version="1.0" encoding="UTF-8" standalone="no"?>
<svg width="123px" height="32px" viewBox="0 0 123 32" version="1.1" xmlns="http://www.w3.org/2000/svg" xmlns:xlink="http://www.w3.org/1999/xlink" xmlns:sketch="http://www.bohemiancoding.com/sketch/ns">
    <!-- Generator: Sketch 3.5.1 (25234) - http://www.bohemiancoding.com/sketch -->
    <title>logo</title>
    <desc>Created with Sketch.</desc>
    <defs></defs>
    <g id="Page-1" stroke="none" stroke-width="1" fill="none" fill-rule="evenodd" sketch:type="MSPage">
        <g id="logo" sketch:type="MSLayerGroup" fill="#0C152A">
            <g id="Page-1" sketch:type="MSShapeGroup">
                <g id="logo">
                    <g id="Page-1">
                        <g id="A4">
                            <g id="logo_gorizontal">
                                <g id="Tabmaker" transform="translate(31.000000, 6.000000)">
                                    <path d="M12.9108005,2.82443323 L8.40947265,2.82443323 L8.40947265,15.8 L5.38652208,15.8 L5.38652208,2.82443323 L0.863128914,2.82443323 L0.863128914,0.0856457768 L12.9108005,0.0856457768 L12.9108005,2.82443323 L12.9108005,2.82443323 Z M12.0281872,5.22648452 C12.616599,4.95709424 13.3153275,4.74383013 14.1243938,4.58668581 C14.9334601,4.42954148 15.7792893,4.3509705 16.661907,4.3509705 C17.4268424,4.3509705 18.0667306,4.44450738 18.5815909,4.63158397 C19.0964513,4.81866055 19.5046559,5.0843053 19.8062169,5.42852622 C20.107778,5.77274712 20.3210741,6.18430942 20.4461115,6.66322548 C20.571149,7.14214152 20.6336668,7.68091399 20.6336668,8.27955906 C20.6336668,8.93806862 20.6116018,9.60030978 20.5674709,10.2663024 C20.5233399,10.932295 20.4975974,11.5870532 20.4902422,12.2305966 C20.4828871,12.8741401 20.5012747,13.4989665 20.5454056,14.1050947 C20.5895364,14.7112227 20.699862,15.2836686 20.8763856,15.8224491 L18.5374603,15.8224491 L18.0740883,14.2734627 L17.9637616,14.2734627 C17.6695557,14.7374126 17.2613511,15.1377505 16.7391357,15.4744884 C16.2169202,15.8112262 15.5439343,15.9795926 14.7201577,15.9795926 C14.2052974,15.9795926 13.7419301,15.9010216 13.3300418,15.7438773 C12.9181536,15.586733 12.5651117,15.3622444 12.2709059,15.070405 C11.9766999,14.7785655 11.7486938,14.4343497 11.5868805,14.0377474 C11.4250673,13.641145 11.3441619,13.1959095 11.3441619,12.7020273 C11.3441619,12.0135855 11.4949401,11.4336568 11.7965011,10.9622238 C12.0980623,10.4907908 12.5320094,10.1091603 13.0983559,9.81732086 C13.6647022,9.52548139 14.3413656,9.32344171 15.1283664,9.21119576 C15.9153672,9.09894981 16.7942942,9.06527654 17.7651737,9.11017491 C17.8681458,8.27207184 17.8093054,7.66969428 17.5886509,7.30302418 C17.3679966,6.93635408 16.8752091,6.75302179 16.1102737,6.75302179 C15.5365722,6.75302179 14.9297816,6.8128854 14.2898837,6.9326144 C13.649986,7.05234342 13.1241008,7.20948538 12.7122125,7.40404503 L12.0281872,5.22648452 L12.0281872,5.22648452 Z M15.668967,13.5775413 C16.2426685,13.5775413 16.6986809,13.4465896 17.0370176,13.1846824 C17.3753545,12.9227752 17.6254257,12.6421646 17.787239,12.3428421 L17.787239,10.883652 C17.3312198,10.8387537 16.8935951,10.8312707 16.4743517,10.861203 C16.0551082,10.8911352 15.6836789,10.9584818 15.3600524,11.0632447 C15.0364259,11.1680076 14.7789996,11.3176665 14.5877658,11.5122262 C14.3965319,11.7067858 14.3009164,11.9537233 14.3009164,12.2530458 C14.3009164,12.6720973 14.4222746,12.9976057 14.6649944,13.2295807 C14.9077143,13.4615556 15.2423685,13.5775413 15.668967,13.5775413 L15.668967,13.5775413 L15.668967,13.5775413 Z M23.0387881,0.0856457768 L25.9072814,0.0856457768 L25.9072814,5.47342437 L25.9955426,5.47342437 C26.3044588,5.11423734 26.7016309,4.82988519 27.1870706,4.62035942 C27.6725104,4.41083365 28.2094282,4.30607234 28.7978399,4.30607234 C30.1217665,4.30607234 31.1330841,4.76627383 31.8318232,5.6866906 C32.5305621,6.60710738 32.8799265,8.01016069 32.8799265,9.89589262 C32.8799265,11.9163198 32.3908165,13.4503246 31.4125818,14.4979536 C30.4343472,15.5455824 29.0920529,16.069389 27.3856586,16.069389 C26.4441998,16.069389 25.5836604,15.990818 24.8040147,15.8336736 C24.024369,15.6765292 23.4359661,15.5006799 23.0387881,15.3061203 L23.0387881,0.0856457768 L23.0387881,0.0856457768 Z M27.9593573,6.77547086 C27.4297867,6.77547086 26.9995169,6.91390545 26.6685354,7.19077879 C26.3375537,7.46765214 26.0838049,7.86799002 25.9072814,8.39180444 L25.9072814,13.2857034 C26.142646,13.4054323 26.3963949,13.4877448 26.6685354,13.5326432 C26.9406757,13.5775416 27.2311997,13.5999904 27.540116,13.5999904 C28.3197616,13.5999904 28.9118422,13.3118968 29.3163752,12.7357009 C29.7209083,12.159505 29.9231719,11.2428435 29.9231719,9.98568894 C29.9231719,7.84553286 29.2685736,6.77547086 27.9593573,6.77547086 L27.9593573,6.77547086 L27.9593573,6.77547086 Z M41.1323608,15.8 L41.1323608,9.69385093 C41.1323608,8.6611882 41.0367453,7.92785901 40.8455115,7.49384134 C40.6542776,7.05982368 40.2571056,6.84281809 39.6539835,6.84281809 C39.1538334,6.84281809 38.7493065,6.98125268 38.4403902,7.25812603 C38.131474,7.53499936 37.8961129,7.89043953 37.7342996,8.3244572 L37.7342996,15.8 L34.8658064,15.8 L34.8658064,4.57546126 L37.094405,4.57546126 L37.425385,6.05710038 L37.5136462,6.05710038 C37.8519831,5.57818434 38.2822527,5.15913908 38.8044683,4.79995204 C39.3266838,4.44076501 39.9996697,4.26117418 40.8234461,4.26117418 C41.5295404,4.26117418 42.1069108,4.40709172 42.5555747,4.6989312 C43.0042388,4.99077066 43.353603,5.48090395 43.603678,6.16934577 C43.9420148,5.58566684 44.3759621,5.12172387 44.9055327,4.77750297 C45.4351033,4.43328206 46.0749916,4.26117418 46.8252166,4.26117418 C47.443049,4.26117418 47.9689342,4.3360037 48.4028878,4.48566496 C48.8368416,4.63532623 49.1898834,4.89348804 49.4620238,5.26015813 C49.7341643,5.62682823 49.9364278,6.11696152 50.0688205,6.7305727 C50.2012131,7.3441839 50.2674084,8.12241079 50.2674084,9.06527676 L50.2674084,15.8 L47.3989152,15.8 L47.3989152,9.49180923 C47.3989152,8.60880777 47.3069772,7.9465666 47.1230986,7.50506588 C46.9392199,7.06356514 46.5310154,6.84281809 45.8984727,6.84281809 C45.3836123,6.84281809 44.9754078,6.98499416 44.6738467,7.26935056 C44.3722856,7.55370697 44.147957,7.94282042 44.000854,8.4367026 L44.000854,15.8 L41.1323608,15.8 L41.1323608,15.8 Z M52.5622031,5.22648452 C53.1506148,4.95709424 53.8493434,4.74383013 54.6584097,4.58668581 C55.467476,4.42954148 56.3133052,4.3509705 57.1959229,4.3509705 C57.9608583,4.3509705 58.6007465,4.44450738 59.1156068,4.63158397 C59.6304671,4.81866055 60.0386717,5.0843053 60.3402328,5.42852622 C60.6417939,5.77274712 60.85509,6.18430942 60.9801274,6.66322548 C61.105165,7.14214152 61.1676827,7.68091399 61.1676827,8.27955906 C61.1676827,8.93806862 61.1456177,9.60030978 61.1014867,10.2663024 C61.0573559,10.932295 61.0316132,11.5870532 61.0242582,12.2305966 C61.016903,12.8741401 61.0352906,13.4989665 61.0794215,14.1050947 C61.1235523,14.7112227 61.2338779,15.2836686 61.4104014,15.8224491 L59.0714762,15.8224491 L58.6081041,14.2734627 L58.4977775,14.2734627 C58.2035717,14.7374126 57.7953671,15.1377505 57.2731516,15.4744884 C56.7509361,15.8112262 56.0779502,15.9795926 55.2541736,15.9795926 C54.7393133,15.9795926 54.275946,15.9010216 53.8640577,15.7438773 C53.4521694,15.586733 53.0991276,15.3622444 52.8049218,15.070405 C52.5107158,14.7785655 52.2827097,14.4343497 52.1208965,14.0377474 C51.9590832,13.641145 51.8781778,13.1959095 51.8781778,12.7020273 C51.8781778,12.0135855 52.028956,11.4336568 52.3305171,10.9622238 C52.6320782,10.4907908 53.0660253,10.1091603 53.6323717,9.81732086 C54.1987181,9.52548139 54.8753815,9.32344171 55.6623823,9.21119576 C56.4493831,9.09894981 57.3283101,9.06527654 58.2991895,9.11017491 C58.4021616,8.27207184 58.3433213,7.66969428 58.1226669,7.30302418 C57.9020124,6.93635408 57.4092249,6.75302179 56.6442896,6.75302179 C56.0705881,6.75302179 55.4637975,6.8128854 54.8238996,6.9326144 C54.1840018,7.05234342 53.6581167,7.20948538 53.2462284,7.40404503 L52.5622031,5.22648452 L52.5622031,5.22648452 Z M56.2029829,13.5775413 C56.7766844,13.5775413 57.2326968,13.4465896 57.5710336,13.1846824 C57.9093704,12.9227752 58.1594416,12.6421646 58.3212549,12.3428421 L58.3212549,10.883652 C57.8652358,10.8387537 57.427611,10.8312707 57.0083676,10.861203 C56.5891242,10.8911352 56.2176948,10.9584818 55.8940683,11.0632447 C55.5704418,11.1680076 55.3130155,11.3176665 55.1217816,11.5122262 C54.9305478,11.7067858 54.8349323,11.9537233 54.8349323,12.2530458 C54.8349323,12.6720973 54.9562905,12.9976057 55.1990103,13.2295807 C55.4417302,13.4615556 55.7763844,13.5775413 56.2029829,13.5775413 L56.2029829,13.5775413 L56.2029829,13.5775413 Z M67.2135839,11.1530409 L66.4412973,11.1530409 L66.4412973,15.8 L63.5728041,15.8 L63.5728041,0.0856457768 L66.4412973,0.0856457768 L66.4412973,9.35711476 L67.1032572,9.04282768 L69.6187052,4.57546126 L72.7740477,4.57546126 L70.1262077,8.84078599 L69.0008758,9.69385093 L70.2144691,10.569365 L73.193289,15.8 L69.9055545,15.8 L67.2135839,11.1530409 L67.2135839,11.1530409 Z M82.9682313,14.8346896 C82.5269224,15.1938768 81.927487,15.4969362 81.1699067,15.7438773 C80.4123265,15.9908184 79.60695,16.1142871 78.7537528,16.1142871 C76.9738071,16.1142871 75.6719655,15.586739 74.848189,14.5316271 C74.0244124,13.4765152 73.6125303,12.0285642 73.6125303,10.1877306 C73.6125303,8.21220194 74.0758977,6.73057765 75.0026463,5.7428133 C75.9293948,4.75504894 77.2312365,4.26117418 78.9082101,4.26117418 C79.4672014,4.26117418 80.0114741,4.3360037 80.5410447,4.48566496 C81.0706154,4.63532623 81.5413377,4.88226361 81.953226,5.22648452 C82.3651143,5.57070542 82.696091,6.03464839 82.9461659,6.61832732 C83.1962411,7.20200625 83.3212766,7.9278525 83.3212766,8.79588783 C83.3212766,9.11017648 83.3028891,9.44690929 83.2661133,9.80609631 C83.2293376,10.1652833 83.1741749,10.5394309 83.1006233,10.9285502 L76.4810235,10.9285502 C76.5251544,11.8714161 76.7641932,12.5822965 77.1981469,13.0612125 C77.6321006,13.5401286 78.3345066,13.779583 79.3053861,13.779583 C79.9085082,13.779583 80.4491035,13.6860462 80.9271881,13.4989695 C81.4052727,13.311893 81.769347,13.1210778 82.019422,12.926518 L82.9682313,14.8346896 L82.9682313,14.8346896 Z M78.8640795,6.59587824 C78.1138544,6.59587824 77.5585491,6.82410824 77.1981469,7.2805751 C76.8377447,7.73704196 76.6207711,8.34690247 76.5472195,9.11017491 L80.6513714,9.11017491 C80.7102126,8.30200408 80.5888544,7.68091916 80.2872934,7.24690149 C79.9857324,6.81288382 79.5113325,6.59587824 78.8640795,6.59587824 L78.8640795,6.59587824 L78.8640795,6.59587824 Z M91.441319,7.31424872 C90.9852999,7.14962133 90.5734178,7.06730887 90.2056604,7.06730887 C89.6908001,7.06730887 89.2605304,7.20574346 88.9148385,7.4826168 C88.5691465,7.75949014 88.3374628,8.11493031 88.2197805,8.54894798 L88.2197805,15.8 L85.3512873,15.8 L85.3512873,4.57546126 L87.5798858,4.57546126 L87.9108659,6.05710038 L87.9991271,6.05710038 C88.2492021,5.5033537 88.5875339,5.0768255 89.0141325,4.77750297 C89.440731,4.47818043 89.9408736,4.32852141 90.5145751,4.32852141 C90.8970428,4.32852141 91.3309899,4.41083388 91.8164297,4.57546126 L91.441319,7.31424872 L91.441319,7.31424872 Z" id="Shape"></path>
                                </g>
                                <path d="M12.037512,27.6762536 L23.5522795,20.9918154 L23.5522795,7.55430733 L11.9783988,0.835553305 L0.404518128,7.55430733 L0.404518128,20.9918154 L6.11578576,24.3072636 L6.11578576,31.0871742 L12.0442982,27.6801627 L12.037512,27.6762536 L12.037512,27.6762536 L12.037512,27.6762536 Z M11.8641735,7.49688208 L17.6016528,10.8275465 L17.6016528,17.4888752 L11.8641735,20.8195396 L6.12669415,17.4888752 L6.12669415,10.8275465 L11.8641735,7.49688208 L11.8641735,7.49688208 L11.8641735,7.49688208 Z" id="Polygon-1"></path>
                            </g>
                        </g>
                    </g>
                </g>
            </g>
        </g>
    </g>
</svg>